<mxfile host="app.diagrams.net" modified="2024-02-07T19:01:54.631Z" agent="Mozilla/5.0 (Windows NT 10.0; Win64; x64) AppleWebKit/537.36 (KHTML, like Gecko) Chrome/121.0.0.0 Safari/537.36" version="23.0.2" etag="z9cfEUlfEx9wesO6qLYx" type="github">
  <diagram name="Page-1" id="_ygsh-y8nlC2jDiUAWc0">
    <mxGraphModel>
      <root>
        <mxCell id="0" />
        <mxCell id="1" parent="0" />
      </root>
    </mxGraphModel>
  </diagram>
</mxfile>
